<?xml version="1.0" encoding="utf-8"?>
<!-- Generator: Adobe Illustrator 28.2.0, SVG Export Plug-In . SVG Version: 6.00 Build 0)  -->
<svg version="1.1" id="Layer_1" xmlns="http://www.w3.org/2000/svg" xmlns:xlink="http://www.w3.org/1999/xlink" x="0px" y="0px"
	 viewBox="0 0 107.34 24" style="enable-background:new 0 0 107.34 24;" xml:space="preserve">
<style type="text/css">
	.st0{fill:#A7B1BF;}
</style>
<path class="st0" d="M7.25,0.37H0v21.17h2.86v-7.72h4.42c4.73,0,7.78-2.49,7.78-6.76C15.07,2.93,12.05,0.37,7.25,0.37z M7.13,11.49
	H2.86V2.71h4.36c3.02,0,4.89,1.71,4.89,4.39C12.11,9.81,10.27,11.49,7.13,11.49z"/>
<path class="st0" d="M22.64,0.37l-8.31,21.17h2.83l1.99-5.08H29.3l1.99,5.08h2.99L25.94,0.37H22.64z M20.02,14.17l3.58-9.15
	l0.62-1.87l0.62,1.87l3.58,9.15H20.02z"/>
<path class="st0" d="M50.04,13.48c0,3.8-2.09,6.13-5.57,6.13s-5.57-2.3-5.57-6.13V0.37H36v13.11c0,5.23,3.24,8.44,8.47,8.44
	c5.2,0,8.44-3.21,8.44-8.44V0.37h-2.86V13.48z"/>
<polygon class="st0" points="77.79,21.92 77.73,21.92 66.11,21.92 54.43,21.92 54.43,24 66.11,24 77.73,24 77.79,24 89.4,24 
	89.4,21.92 "/>
<path class="st0" d="M94.35,5.54c0-1.87,1.56-3.08,4.23-3.08c2.71,0,4.51,1.21,5.17,4.02h3.02C106,1.96,102.73,0,98.65,0
	c-4.67,0-7.22,2.68-7.22,5.73c0,8.56,12.98,3.74,12.98,10.21c0,2.12-1.68,3.52-4.86,3.52c-3.05,0-4.95-1.37-5.64-3.89h-2.99
	c0.93,4.27,4.05,6.35,8.59,6.35c4.51,0,7.82-2.27,7.82-6.35C107.34,6.88,94.35,11.52,94.35,5.54z"/>
</svg>
