<svg width="17" height="22" viewBox="0 0 17 22" fill="none" xmlns="http://www.w3.org/2000/svg">
<path d="M3.42249 5.54181C3.42249 3.67487 4.97845 2.46026 7.65556 2.46026C10.3327 2.46026 12.1681 3.67487 12.8234 6.47683L15.8422 6.47683C15.0627 1.96324 11.7955 0 7.71767 0C3.04669 0 0.496914 2.67771 0.496914 5.72819C0.496914 14.2894 13.4787 9.46518 13.4787 15.942C13.4787 18.0606 11.7986 19.4616 8.62143 19.4616C5.4443 19.4616 3.67095 18.0916 2.98769 15.5693H0C0.934816 19.8343 4.04673 21.9218 8.59348 21.9218C13.1402 21.9218 16.4074 19.6479 16.4074 15.5693C16.4074 6.88066 3.42559 11.5216 3.42559 5.54181H3.42249Z" fill="#313B5E"/>
</svg>
