<svg width="53" height="22" viewBox="0 0 53 22" fill="none" xmlns="http://www.w3.org/2000/svg">
<path d="M7.25181 0.373047L0 0.373047L0 21.5462H2.86346L2.86346 13.8237L7.28287 13.8237C12.016 13.8237 15.0658 11.3324 15.0658 7.06732C15.0658 2.80225 12.047 0.373047 7.25181 0.373047ZM7.12759 11.4908L2.86346 11.4908L2.86346 2.70905L7.22076 2.70905C10.2395 2.70905 12.1091 4.42068 12.1091 7.09839C12.1091 9.7761 10.2737 11.4877 7.12759 11.4877V11.4908Z" fill="#26356C"/>
<path d="M22.1341 0.373047L13.8232 21.5462H16.6556L18.6495 16.4704L28.7989 16.4704L30.7928 21.5462H33.7805L25.4324 0.373047L22.1341 0.373047ZM19.5191 14.1685L23.1 5.014L23.7211 3.14706L24.3423 5.014L27.9231 14.1685H19.5191Z" fill="#26356C"/>
<path d="M49.53 13.482C49.53 17.2811 47.4429 19.6172 43.9583 19.6172C40.4737 19.6172 38.3867 17.3122 38.3867 13.482V0.373047L35.4922 0.373047V13.482C35.4922 18.7132 38.7283 21.919 43.9583 21.919C49.1883 21.919 52.3934 18.7132 52.3934 13.482V0.373047L49.53 0.373047V13.482Z" fill="#26356C"/>
</svg>
